<svg width="77" height="77" viewBox="0 0 77 77" fill="none" xmlns="http://www.w3.org/2000/svg">
<g clip-path="url(#clip0_12473_268551)">
<rect x="0.839844" y="0.5" width="76" height="76" rx="18.0952" fill="#F5F5F5"/>
<g clip-path="url(#clip1_12473_268551)">
<path d="M90.7832 30.4359C89.4363 28.2188 87.8754 26.1344 86.1457 24.2031C66.8426 24.2172 47.5395 24.2016 28.2379 24.2109C27.7066 24.2141 27.1723 24.1781 26.6441 24.25C25.5832 24.4047 24.7066 25.3719 24.6566 26.4438C24.6254 27.2484 24.6566 28.0531 24.6379 28.8594C24.6535 41.6797 24.641 54.5016 24.6426 67.3234C26.2332 67.3203 27.8223 67.3234 29.4113 67.3234C29.4129 66.2016 29.3957 65.0812 29.4223 63.9625C29.4566 53.0703 29.4176 42.1766 29.441 31.2844C29.3926 30.7547 29.9098 30.3672 30.4082 30.4375C50.5332 30.4375 70.6582 30.4391 90.7832 30.4359ZM68.4738 26.3516C69.0801 26.6359 69.4254 27.425 69.002 28.0063C68.5488 28.7953 67.1488 28.5906 66.9973 27.675C66.7613 26.85 67.6895 26.0281 68.4738 26.3516ZM63.9441 26.3438C64.7863 26.5547 64.9785 27.7875 64.291 28.2844C63.6645 28.8313 62.527 28.3688 62.5129 27.5203C62.3723 26.7516 63.2238 26.075 63.9441 26.3438ZM59.4254 26.3375C60.0629 26.5094 60.4504 27.2969 60.1441 27.8953C59.7988 28.7422 58.3801 28.6781 58.1066 27.8047C57.7332 27.0266 58.616 26.05 59.4254 26.3375Z" fill="#064B82"/>
<path d="M68.474 26.3514C67.6896 26.028 66.7615 26.8499 66.9974 27.6749C67.149 28.5905 68.549 28.7952 69.0021 28.0061C69.4256 27.4249 69.0803 26.6358 68.474 26.3514Z" fill="#328091"/>
<path d="M59.4264 26.3376C58.6171 26.0501 57.7343 27.0266 58.1077 27.8048C58.3811 28.6782 59.7999 28.7423 60.1452 27.8954C60.4514 27.2969 60.0639 26.5094 59.4264 26.3376Z" fill="#328091"/>
<path d="M63.9423 26.3437C63.222 26.075 62.3704 26.7515 62.5111 27.5203C62.5251 28.3687 63.6626 28.8312 64.2892 28.2843C64.9767 27.7875 64.7845 26.5547 63.9423 26.3437Z" fill="#235967"/>
<path d="M96.3398 50.0499C96.2586 43.1718 94.3164 36.3359 90.782 30.4359C70.657 30.439 50.532 30.4374 30.407 30.4374C29.9086 30.3671 29.3914 30.7546 29.4398 31.2843C29.4164 42.1765 29.4555 53.0703 29.4211 63.9624C50.9445 63.9749 72.4695 63.9671 93.9945 63.9656C95.468 59.8374 96.282 55.4749 96.3398 51.0906V50.0499ZM89.5586 35.8718C90.4336 36.4499 91.1539 37.2921 91.4742 38.2999C92.2039 40.3312 91.2023 42.7749 89.2664 43.7218C87.2133 44.8484 84.3789 43.9968 83.2945 41.9187L83.232 41.9031C83.193 41.8234 83.1133 41.664 83.0727 41.5843C82.6617 41.6984 82.232 41.6468 81.8102 41.6515C77.5352 41.6499 73.2602 41.6531 68.9852 41.6531C68.5586 41.6515 68.1258 41.6859 67.7039 41.5937C67.1023 42.8906 65.8664 43.8812 64.4539 44.1406C62.4664 44.5593 60.3242 43.4328 59.5039 41.5843C59.2383 41.6374 58.9664 41.6609 58.693 41.6562C53.593 41.6281 48.4914 41.6874 43.3914 41.6265C42.7117 43.0734 41.2305 44.1171 39.6273 44.2078C37.9664 44.3468 36.2742 43.4624 35.4445 42.0156H35.4039C35.0305 41.364 34.8008 40.6249 34.7742 39.8718C34.6867 37.8578 36.1101 35.8937 38.0617 35.3749C39.2336 35.0031 40.5398 35.2078 41.593 35.8203L41.5945 35.8609C42.3758 36.3109 42.9961 37.014 43.3867 37.8218C48.4867 37.764 53.5883 37.8218 58.6883 37.7953C58.9633 37.7906 59.2367 37.8171 59.507 37.8593C60.3086 36.0671 62.3555 34.9484 64.2977 35.2843C65.7758 35.4999 67.0867 36.5171 67.7086 37.8671C68.2367 37.7546 68.7789 37.8046 69.3133 37.7984C73.2695 37.7984 77.2258 37.7984 81.182 37.7984C81.8133 37.8078 82.4492 37.7531 83.0758 37.8562C83.6367 36.6484 84.7289 35.6953 86.0242 35.3578C87.2039 35.0093 88.5227 35.2124 89.5586 35.8718ZM93.9398 48.0734C94.1883 48.2093 94.4164 48.4671 94.3945 48.7687C94.4086 49.3468 94.4164 49.9265 94.3852 50.5046C94.3539 50.9265 93.9258 51.2296 93.5148 51.189C89.3023 51.1953 85.0898 51.1937 80.8773 51.189C80.4789 51.2187 80.0664 50.9203 80.0461 50.5062C80.0133 49.8828 80.0023 49.2531 80.0555 48.6312C80.1133 48.1796 80.6086 47.9609 81.018 48.0031C85.0805 47.9937 89.1414 48.0062 93.2039 47.9968C93.4492 48.0062 93.7055 47.9906 93.9398 48.0734ZM70.2164 48.0453C70.4883 48.1218 70.7242 48.3343 70.7617 48.6249C70.8117 49.2453 70.7961 49.8703 70.7695 50.4921C70.7617 50.914 70.3383 51.2171 69.9352 51.189C66.0305 51.1984 62.1242 51.189 58.218 51.1921C57.8039 51.1874 57.3867 51.2218 56.9742 51.1578C56.6289 51.0515 56.407 50.6968 56.4289 50.3406C56.4211 49.7703 56.3977 49.1968 56.4508 48.6296C56.5117 48.1687 57.0086 47.9656 57.4211 48.0015C61.4883 47.9968 65.5555 48.0031 69.6211 47.9984C69.8227 47.9921 70.0211 48.0078 70.2164 48.0453ZM45.9773 48.0624C46.4836 48.2265 46.5305 48.8093 46.4992 49.2578C46.4805 49.7406 46.5461 50.2406 46.4211 50.7124C46.3008 51.0718 45.9023 51.2156 45.5508 51.1921C41.3852 51.1953 37.2195 51.189 33.0555 51.1937C32.6305 51.2421 32.1727 50.9562 32.143 50.5078C32.1023 49.9312 32.1101 49.3515 32.1336 48.7765C32.1211 48.2968 32.607 47.9437 33.0617 48.0015C37.1211 47.9953 41.182 48.0046 45.243 47.9953C45.4883 48.0046 45.7414 47.9843 45.9773 48.0624ZM92.868 54.4624C93.143 54.5796 93.3523 54.8609 93.3383 55.1671C93.3523 55.7468 93.3648 56.3281 93.3258 56.9078C93.2977 57.3499 92.8336 57.6156 92.4227 57.5843C89.3008 57.5859 86.1773 57.5828 83.0555 57.5843C82.5883 57.5781 82.118 57.6218 81.6555 57.5453C81.3273 57.4468 81.0586 57.1109 81.082 56.7609C81.0742 56.1828 81.057 55.6031 81.1008 55.0265C81.1539 54.6296 81.568 54.3609 81.9539 54.3984C85.3461 54.3874 88.7367 54.4031 92.1289 54.3921C92.3758 54.3999 92.632 54.3765 92.868 54.4624ZM69.2789 54.4656C69.5445 54.5906 69.7508 54.8687 69.732 55.1718C69.743 55.7484 69.7586 56.3265 69.7195 56.9031C69.693 57.3343 69.2523 57.6156 68.8445 57.5812C65.3539 57.5874 61.8633 57.5843 58.3742 57.5828C57.9617 57.6203 57.5211 57.3374 57.4867 56.9046C57.4586 56.2812 57.457 55.6546 57.493 55.0328C57.5477 54.6187 57.9773 54.3578 58.3727 54.3968C61.7539 54.3906 65.1367 54.4031 68.518 54.3906C68.7727 54.3999 69.0367 54.3781 69.2789 54.4656ZM45.0289 54.4812C45.2851 54.6156 45.4336 54.9062 45.432 55.1906C45.4555 55.7624 45.468 56.3374 45.4227 56.9093C45.3914 57.3765 44.8976 57.6343 44.468 57.5843C40.982 57.5812 37.4945 57.5921 34.007 57.5796C33.618 57.5984 33.2305 57.3031 33.1914 56.9062C33.1539 56.2828 33.1492 55.6531 33.1992 55.0296C33.2523 54.6499 33.6133 54.3671 33.9945 54.4015C37.4305 54.3874 40.868 54.4031 44.3055 54.3921C44.5477 54.4031 44.8023 54.3812 45.0289 54.4812Z" fill="#56BCD6"/>
<path d="M70.2169 48.0453C70.0216 48.0078 69.8232 47.9922 69.6216 47.9984C65.556 48.0031 61.4888 47.9968 57.4216 48.0015C57.0091 47.9656 56.5122 48.1687 56.4513 48.6297C56.3982 49.1968 56.4216 49.7703 56.4294 50.3406C56.4075 50.6968 56.6294 51.0515 56.9747 51.1578C57.3872 51.2218 57.8044 51.1875 58.2185 51.1922C62.1247 51.189 66.031 51.1984 69.9357 51.189C70.3388 51.2172 70.7622 50.914 70.77 50.4922C70.7966 49.8703 70.8122 49.2453 70.7622 48.625C70.7247 48.3343 70.4888 48.1218 70.2169 48.0453Z" fill="white"/>
<path d="M76.5709 34.6507C75.9732 34.5335 75.3659 34.4847 74.7491 34.5042C62.3068 34.5188 49.8598 34.4993 37.4128 34.5139C36.1504 34.4016 34.6298 35.0364 34.4433 36.4767C34.2807 38.2491 34.3524 40.041 34.3763 41.8231C34.3094 42.9364 34.9884 44.0447 36.0452 44.3767C37.3076 44.5769 38.5843 44.4695 39.8515 44.4841C51.806 44.4744 63.7605 44.5037 75.7102 44.4744C76.9439 44.5623 78.2398 43.615 78.2637 42.2967C78.345 40.3535 78.3928 38.4005 78.2398 36.4621C78.125 35.5539 77.403 34.8899 76.5709 34.6507Z" fill="white"/>
<path d="M45.9784 48.0623C45.7425 47.9842 45.4894 48.0045 45.2441 47.9951C41.1831 48.0045 37.1222 47.9951 33.0628 48.0014C32.6081 47.9436 32.1222 48.2967 32.1347 48.7764C32.1112 49.3514 32.1034 49.9311 32.1441 50.5076C32.1737 50.9561 32.6316 51.242 33.0566 51.1936C37.2206 51.1889 41.3862 51.1951 45.5519 51.192C45.9034 51.2154 46.3019 51.0717 46.4222 50.7123C46.5472 50.2404 46.4816 49.7404 46.5003 49.2576C46.5316 48.8092 46.4847 48.2264 45.9784 48.0623Z" fill="white"/>
<path d="M69.2804 54.4656C69.0383 54.3781 68.7742 54.4 68.5195 54.3906C65.1383 54.4031 61.7554 54.3906 58.3742 54.3969C57.9789 54.3578 57.5492 54.6188 57.4945 55.0328C57.4586 55.6547 57.4601 56.2812 57.4883 56.9047C57.5226 57.3375 57.9633 57.6203 58.3758 57.5828C61.8648 57.5844 65.3554 57.5875 68.8461 57.5813C69.2539 57.6156 69.6945 57.3344 69.7211 56.9031C69.7601 56.3266 69.7445 55.7484 69.7336 55.1719C69.7523 54.8687 69.5461 54.5906 69.2804 54.4656Z" fill="white"/>
<path d="M45.0308 54.4812C44.8043 54.3812 44.5496 54.403 44.3074 54.3921C40.8699 54.403 37.4324 54.3874 33.9965 54.4015C33.6152 54.3671 33.2543 54.6499 33.2012 55.0296C33.1512 55.653 33.1558 56.2827 33.1933 56.9062C33.2324 57.303 33.6199 57.5983 34.009 57.5796C37.4965 57.5921 40.984 57.5812 44.4699 57.5843C44.8996 57.6343 45.3933 57.3765 45.4246 56.9093C45.4699 56.3374 45.4574 55.7624 45.434 55.1905C45.4355 54.9062 45.2871 54.6155 45.0308 54.4812Z" fill="white"/>
<rect x="29.3398" y="30.5" width="61" height="36" fill="#56BCD6"/>
<path d="M38.339 43.5337C38.499 43.5083 38.659 43.4969 38.8202 43.5007C44.1154 43.5058 49.4094 43.4982 54.7033 43.5045C55.2543 43.4639 55.7684 43.9552 55.7354 44.51C55.7342 45.0483 55.2327 45.499 54.6995 45.4634C49.3662 45.4685 44.0316 45.4647 38.6971 45.4647C38.2324 45.5053 37.7589 45.2095 37.637 44.7512C37.4783 44.2409 37.8173 43.6518 38.339 43.5337Z" fill="white"/>
<path d="M37.9797 51.4123C38.377 51.298 38.7985 51.3628 39.2073 51.3475C48.6412 51.3475 58.0751 51.3475 67.5102 51.3488C68.0853 51.2891 68.6414 51.7931 68.5919 52.3784C68.583 52.9256 68.0561 53.361 67.5191 53.3102C57.8669 53.3128 48.2134 53.3077 38.5611 53.3128C38.1523 53.347 37.6966 53.2188 37.4833 52.8392C37.157 52.3428 37.4147 51.6002 37.9797 51.4123Z" fill="white"/>
<path d="M93.9961 63.9655C72.4711 63.9671 50.9461 63.9749 29.4227 63.9624C29.3961 65.0812 29.4133 66.2015 29.4117 67.3233C37.393 67.3171 45.3742 67.339 53.3555 67.3108C59.2164 67.289 65.0773 67.2921 70.9383 67.3093C78.1617 67.3437 85.3867 67.3124 92.6102 67.3249C93.1039 66.2187 93.6086 65.114 93.9961 63.9655Z" fill="white"/>
<path d="M92.6074 67.3252C85.384 67.3127 78.159 67.3439 70.9355 67.3096C71.0059 68.9721 69.5512 70.4893 67.8918 70.508C64.1449 70.5361 60.3965 70.5143 56.6496 70.5205C55.523 70.5361 54.4027 69.9314 53.8355 68.9533C53.523 68.4611 53.4199 67.8799 53.3527 67.3111C45.3715 67.3393 37.3902 67.3174 29.409 67.3236C27.8199 67.3236 26.2309 67.3205 24.6402 67.3236C23.7184 67.3236 22.7965 67.3236 21.873 67.3236C20.5527 67.3314 19.2309 67.3064 17.909 67.333C17.0949 67.3205 16.3996 68.0158 16.3387 68.8143V70.7721C16.4121 72.0986 16.8715 73.4096 17.7012 74.4533C18.8543 75.9486 20.7027 76.8721 22.5902 76.9002C24.4965 76.9174 26.4012 76.9002 28.3059 76.908C47.459 76.9064 66.6121 76.9064 85.7637 76.908C85.948 76.8971 86.1277 76.8643 86.3059 76.8236C86.6418 76.2471 87.1402 75.7971 87.5387 75.2689C89.5449 72.8393 91.1949 70.1346 92.6074 67.3252Z" fill="#064B82"/>
<path d="M70.939 67.3093C65.078 67.2921 59.2171 67.289 53.3561 67.3108C53.4233 67.8796 53.5265 68.4608 53.839 68.953C54.4061 69.9312 55.5265 70.5358 56.653 70.5202C60.3999 70.514 64.1483 70.5358 67.8952 70.5077C69.5546 70.489 71.0093 68.9718 70.939 67.3093Z" fill="#289FCE"/>
<path d="M31.3104 17.5477C33.2581 17.3883 35.2572 17.6193 37.0672 18.3811C39.6674 19.432 41.8488 21.4621 43.0983 23.9718C44.2558 26.2667 44.6219 28.9479 44.1248 31.4697C43.8506 32.9191 43.2779 34.3022 42.4972 35.5517C42.4769 35.58 42.4364 35.6395 42.4161 35.6678C41.0222 37.7925 38.9204 39.4148 36.5418 40.2927C35.8583 40.1212 35.1465 40.1428 34.4549 40.0158C32.3599 39.6755 30.3635 38.7475 28.7602 37.3535C26.5841 35.5219 25.1415 32.8529 24.7633 30.0379C24.5054 27.8997 24.7593 25.6751 25.6656 23.7097C26.6598 21.454 28.3806 19.5306 30.5202 18.3068C30.9295 18.088 31.3522 17.8935 31.7534 17.6598C31.6427 17.6314 31.4211 17.576 31.3104 17.5477ZM37.1739 23.5895C35.0668 25.6291 33.0272 27.7417 30.9322 29.7948C30.7944 29.9556 30.5486 29.9204 30.427 29.7624C29.6003 28.9628 28.8115 28.1253 27.9794 27.3338C27.8322 27.173 27.5864 27.2365 27.4662 27.3932C26.653 28.209 25.8264 29.0127 25.0281 29.8421C24.8606 29.9826 24.9497 30.2298 25.0956 30.3459C26.4653 31.7223 27.8403 33.0933 29.214 34.4657C29.7854 35.0505 30.7106 35.2383 31.4671 34.9303C31.9358 34.7628 32.2667 34.3752 32.6111 34.0348C35.0627 31.5791 37.5184 29.1275 39.9713 26.6733C40.1577 26.5274 40.2509 26.2505 40.0334 26.0816C39.2838 25.305 38.5071 24.554 37.7493 23.7854C37.6048 23.6463 37.3779 23.4085 37.1739 23.5895Z" fill="#49CB5C"/>
<path d="M24.1368 21.1084C26.0117 19.1269 28.601 17.8504 31.3106 17.5479C31.4214 17.5762 31.6429 17.6316 31.7536 17.66C31.3525 17.8936 30.9297 18.0881 30.5204 18.307C28.3808 19.5307 26.66 21.4542 25.6659 23.7099C24.7595 25.6752 24.5056 27.8999 24.7636 30.0381C25.1418 32.8531 26.5844 35.5221 28.7604 37.3537C30.3637 38.7477 32.3601 39.6756 34.4551 40.016C35.1467 40.143 35.8585 40.1214 36.542 40.2929C34.4024 41.0493 32.044 41.1777 29.8383 40.6306C26.9774 39.9458 24.4191 38.125 22.8064 35.6693C22.7861 35.641 22.7469 35.5843 22.728 35.5559C21.9378 34.3092 21.3678 32.9206 21.095 31.4672C20.3548 27.7918 21.511 23.7923 24.1368 21.1084Z" fill="#07B128"/>
<path d="M37.1741 23.5893C37.378 23.4083 37.605 23.646 37.7495 23.7851C38.5073 24.5537 39.2839 25.3047 40.0336 26.0814C40.2511 26.2502 40.1579 26.5271 39.9714 26.673C37.5185 29.1273 35.0629 31.5789 32.6113 34.0345C32.2668 34.3749 31.9359 34.7626 31.4672 34.9301C30.7108 35.238 29.7855 35.0503 29.2142 34.4654C27.8405 33.0931 26.4654 31.7221 25.0958 30.3457C24.9499 30.2295 24.8607 29.9823 25.0282 29.8419C25.8265 29.0125 26.6532 28.2088 27.4663 27.393C27.5865 27.2363 27.8324 27.1728 27.9796 27.3335C28.8117 28.1251 29.6005 28.9625 30.4271 29.7622C30.5487 29.9202 30.7945 29.9553 30.9323 29.7946C33.0273 27.7415 35.0669 25.6289 37.1741 23.5893Z" fill="#F8F7F8"/>
</g>
</g>
<defs>
<clipPath id="clip0_12473_268551">
<rect x="0.339844" y="0.5" width="76" height="76" rx="38" fill="white"/>
</clipPath>
<clipPath id="clip1_12473_268551">
<rect width="80" height="80" fill="white" transform="matrix(-1 0 0 1 96.3398 10.5)"/>
</clipPath>
</defs>
</svg>
