<svg width="52" height="52" viewBox="0 0 52 52" fill="none" xmlns="http://www.w3.org/2000/svg">
<g clip-path="url(#clip0_267_8950)">
<rect width="52" height="52" rx="12.381" fill="#F5F5F5"/>
<path d="M21.135 29.3402C22.7033 29.2955 24.2774 29.3314 25.8476 29.3217C26.1059 29.2897 26.3448 29.5023 26.3254 29.7665C26.3429 31.192 26.3215 32.6185 26.3342 34.0441C26.3176 34.2577 26.3691 34.516 26.2069 34.6879C26.0681 34.8355 25.8467 34.8083 25.6631 34.8209C24.2677 34.8161 22.8713 34.8171 21.4758 34.82C21.2933 34.8083 21.0728 34.8307 20.9388 34.6792C20.8058 34.5345 20.8417 34.3208 20.8281 34.1422C20.8359 32.7147 20.8301 31.2882 20.8301 29.8607C20.8155 29.649 20.8971 29.3848 21.135 29.3402Z" fill="#064B82"/>
<path d="M29.0918 29.3363C30.5689 29.2955 32.0488 29.3383 33.5268 29.3159C33.7113 29.3295 33.923 29.2887 34.0861 29.3985C34.2629 29.5276 34.2395 29.7675 34.2512 29.9617C34.2473 31.3532 34.2463 32.7467 34.2512 34.1393C34.2376 34.3345 34.2726 34.5763 34.1036 34.7171C33.9735 34.8307 33.7851 34.8064 33.6268 34.82C32.2304 34.8181 30.8349 34.8151 29.4395 34.821C29.2132 34.8181 28.9132 34.8355 28.8015 34.5879C28.7423 34.3791 28.7597 34.1587 28.7549 33.9441C28.7685 32.5496 28.7471 31.1551 28.7646 29.7616C28.7432 29.5577 28.8811 29.3548 29.0918 29.3363Z" fill="#064B82"/>
<path d="M36.9661 29.3421C38.5335 29.2917 40.1066 29.3334 41.6759 29.3218C41.9361 29.2868 42.1983 29.4888 42.1663 29.7646C42.1809 31.2231 42.1643 32.6827 42.1741 34.1422C42.1575 34.3286 42.1983 34.5569 42.0459 34.6996C41.9002 34.8443 41.6759 34.8064 41.4904 34.821C40.095 34.8152 38.6995 34.8181 37.3041 34.82C37.1439 34.8064 36.9564 34.8307 36.8273 34.7171C36.6564 34.5772 36.6913 34.3345 36.6787 34.1383C36.6855 32.7137 36.6777 31.2892 36.6816 29.8646C36.6729 29.6587 36.7311 29.3897 36.9661 29.3421Z" fill="#064B82"/>
<path d="M44.9227 29.3373C46.3987 29.2926 47.8786 29.3392 49.3557 29.3159C49.5606 29.3305 49.8101 29.28 49.9733 29.4383C50.1141 29.5713 50.0937 29.7801 50.1024 29.9568C50.0927 31.4144 50.1053 32.873 50.0966 34.3306C50.1306 34.5937 49.9169 34.8346 49.648 34.8113C48.1224 34.8239 46.5959 34.821 45.0713 34.8132C44.7955 34.8491 44.5789 34.6015 44.6042 34.3354C44.5935 32.8439 44.6022 31.3513 44.6003 29.8588C44.5847 29.6432 44.678 29.3703 44.9227 29.3373Z" fill="#064B82"/>
<path d="M18.0664 19.644C18.2305 18.8535 19.0317 18.2961 19.8241 18.3175C21.8643 18.3175 23.9036 18.3146 25.9428 18.3185C25.9458 19.5139 25.9448 20.7093 25.9409 21.9047C25.9312 22.3086 25.9875 22.734 26.2361 23.0661C26.6391 23.672 27.4558 23.9478 28.1433 23.706C28.8192 23.4895 29.3008 22.8097 29.2824 22.0989C29.2921 20.8394 29.2804 19.5789 29.2853 18.3194C33.4056 18.3155 37.5249 18.3155 41.6452 18.3194C41.6462 19.5139 41.6462 20.7083 41.6423 21.9027C41.6404 22.2678 41.6773 22.6504 41.8754 22.968C42.2162 23.5613 42.9435 23.8993 43.6165 23.7643C44.3584 23.6409 44.9692 22.9583 44.9809 22.2018C44.9983 20.9074 44.978 19.6129 44.9877 18.3185C47.0599 18.3117 49.1313 18.3243 51.2035 18.3117C51.96 18.3291 52.734 18.872 52.8631 19.6401C52.8253 21.4288 52.8699 23.2185 52.8437 25.0073C41.2577 25.0043 29.6718 25.0034 18.0868 25.0073C18.0538 23.2195 18.0936 21.4317 18.0664 19.644Z" fill="#289FCE"/>
<path opacity="0.89" d="M17.9848 20.5431C17.9877 20.2421 17.9547 19.9314 18.0664 19.6439C18.0936 21.4317 18.0538 23.2194 18.0868 25.0072L17.9877 25.0082C17.9819 23.5195 17.9887 22.0318 17.9848 20.5431Z" fill="#6292DA"/>
<path d="M17.988 25.0082L18.087 25.0072C29.672 25.0034 41.258 25.0043 52.8439 25.0072L52.9439 25.0082C52.9469 25.5239 52.9478 26.0395 52.943 26.5551C52.6177 26.5571 52.2924 26.56 51.967 26.56C51.6446 26.559 51.3222 26.559 51.0008 26.56C40.0024 26.5561 29.0049 26.5581 18.0064 26.559C17.9637 26.0424 17.9919 25.5248 17.988 25.0082Z" fill="#56BCD6"/>
<path d="M18.0058 26.559C29.0043 26.5581 40.0018 26.5561 51.0002 26.56C50.9925 33.812 50.9973 41.0641 50.9973 48.3161C50.9847 49.0085 51.0925 49.7572 50.7448 50.3903C50.4166 50.9866 49.7388 51.34 49.0649 51.3255C47.5413 51.3293 46.0167 51.309 44.493 51.3323C44.2338 51.3468 43.9716 51.309 43.756 51.1555C44.0716 50.6175 44.3377 50.0504 44.5494 49.4639C44.8329 49.6057 45.1417 49.7008 45.4631 49.6843C46.7605 49.6678 48.0588 49.6756 49.3562 49.6814C49.5689 49.662 49.8204 49.6892 49.9932 49.5396C50.1369 49.327 50.103 49.0493 50.1204 48.8045C50.103 47.5072 50.1166 46.2088 50.1156 44.9115C50.1059 44.6532 50.0962 44.2735 49.7786 44.2074C49.1892 44.0987 48.5861 44.1822 47.9918 44.1628C46.9518 44.1871 45.9069 44.0997 44.8708 44.2181C44.4736 42.3566 43.486 40.6484 42.1382 39.3142C42.1644 38.5674 42.2226 37.8139 42.143 37.07C42.1187 36.7447 41.7313 36.7573 41.4914 36.7486C40.0241 36.769 38.5558 36.7262 37.0895 36.7806C36.0126 36.6252 34.9172 36.6243 33.8403 36.7816C32.473 36.7243 31.1038 36.7738 29.7355 36.7457C29.4665 36.7525 29.184 36.7262 28.9295 36.8263C28.7576 36.9331 28.7761 37.1613 28.7567 37.3371C28.7392 38.0168 28.7712 38.6975 28.7644 39.3783C27.4195 40.6873 26.4688 42.3925 26.0707 44.2278C25.7085 44.1754 25.3424 44.1482 24.9763 44.155C23.842 44.1725 22.7078 44.1569 21.5726 44.1569C21.3337 44.1744 21.0016 44.1579 20.889 44.4211C20.8084 44.6396 20.8162 44.8785 20.8103 45.1076C20.8249 46.373 20.8181 47.6383 20.8113 48.9036C20.8278 49.1163 20.8055 49.3581 20.9366 49.5396C21.1405 49.7018 21.427 49.6649 21.6717 49.6834C22.904 49.6727 24.1363 49.6707 25.3676 49.6834C25.7259 49.6911 26.0784 49.6134 26.4144 49.4969C26.629 50.1029 26.9097 50.6855 27.236 51.239C26.9709 51.2818 26.7048 51.3196 26.4368 51.3264C23.6255 51.3187 20.8152 51.3235 18.0039 51.3235C18.0311 47.3761 18.0078 43.4267 18.0156 39.4793C18.0088 35.1725 18.0292 30.8648 18.0058 26.559ZM21.1347 29.3402C20.8968 29.3849 20.8152 29.649 20.8297 29.8607C20.8297 31.2882 20.8356 32.7147 20.8278 34.1422C20.8414 34.3209 20.8055 34.5345 20.9385 34.6792C21.0725 34.8307 21.293 34.8084 21.4755 34.82C22.871 34.8171 24.2674 34.8161 25.6628 34.821C25.8463 34.8084 26.0678 34.8355 26.2066 34.6879C26.3688 34.5161 26.3173 34.2578 26.3338 34.0441C26.3212 32.6186 26.3426 31.1921 26.3251 29.7665C26.3445 29.5024 26.1056 29.2897 25.8473 29.3218C24.2771 29.3315 22.703 29.2955 21.1347 29.3402ZM29.0917 29.3363C28.881 29.3548 28.7431 29.5577 28.7644 29.7617C28.747 31.1552 28.7683 32.5496 28.7547 33.9441C28.7596 34.1587 28.7421 34.3791 28.8013 34.5879C28.913 34.8355 29.2131 34.8181 29.4393 34.821C30.8348 34.8152 32.2302 34.8181 33.6266 34.82C33.7849 34.8064 33.9733 34.8307 34.1034 34.7171C34.2724 34.5763 34.2375 34.3345 34.251 34.1393C34.2462 32.7468 34.2472 31.3533 34.251 29.9617C34.2394 29.7675 34.2627 29.5276 34.086 29.3985C33.9228 29.2887 33.7111 29.3295 33.5266 29.3159C32.0486 29.3383 30.5687 29.2955 29.0917 29.3363ZM36.9662 29.3421C36.7312 29.3897 36.6729 29.6587 36.6817 29.8646C36.6778 31.2892 36.6855 32.7137 36.6787 34.1383C36.6914 34.3345 36.6564 34.5772 36.8273 34.7171C36.9565 34.8307 37.1439 34.8064 37.3041 34.82C38.6996 34.8181 40.095 34.8152 41.4905 34.821C41.6759 34.8064 41.9002 34.8443 42.0459 34.6996C42.1984 34.5568 42.1576 34.3286 42.1741 34.1422C42.1644 32.6827 42.1809 31.2231 42.1663 29.7646C42.1984 29.4888 41.9362 29.2868 41.6759 29.3218C40.1067 29.3334 38.5335 29.2917 36.9662 29.3421ZM44.9223 29.3373C44.6775 29.3703 44.5843 29.6432 44.5999 29.8588C44.6018 31.3513 44.5931 32.8439 44.6037 34.3354C44.5785 34.6015 44.795 34.8491 45.0708 34.8132C46.5954 34.821 48.122 34.8239 49.6475 34.8113C49.9165 34.8346 50.1302 34.5938 50.0962 34.3306C50.1049 32.873 50.0923 31.4144 50.102 29.9568C50.0933 29.7801 50.1136 29.5713 49.9728 29.4383C49.8097 29.28 49.5601 29.3305 49.3552 29.3159C47.8782 29.3392 46.3983 29.2926 44.9223 29.3373ZM18.9575 30.4463C18.7643 30.5686 18.7837 30.8269 18.7672 31.026C18.7711 37.3409 18.773 43.6568 18.7662 49.9718C18.7788 50.1475 18.7565 50.3728 18.9303 50.4806C19.0944 50.6088 19.3081 50.535 19.4926 50.5059C19.614 49.6853 19.5168 48.8512 19.547 48.0248C19.5479 42.5867 19.545 37.1487 19.5479 31.7106C19.5411 31.3348 19.5858 30.9512 19.5023 30.5812C19.4042 30.4055 19.1284 30.3074 18.9575 30.4463ZM21.0317 36.8C20.8103 36.9205 20.8317 37.2186 20.8142 37.4351C20.8171 38.7645 20.823 40.0949 20.8123 41.4253C20.8249 41.6817 20.7909 42.0041 21.0249 42.1789C21.3328 42.2546 21.6523 42.2332 21.9669 42.2352C23.2613 42.2177 24.5568 42.2497 25.8512 42.2235C26.0949 42.2459 26.3387 42.0691 26.3222 41.8089C26.3503 40.4513 26.3144 39.0908 26.3367 37.7323C26.328 37.4701 26.3571 37.1933 26.2542 36.9457C26.1542 36.7165 25.8609 36.7729 25.6599 36.7505C24.3324 36.7534 23.004 36.7602 21.6756 36.7486C21.461 36.7525 21.2415 36.7447 21.0317 36.8ZM44.8154 36.7903C44.5765 36.9564 44.6066 37.2788 44.594 37.5342C44.6018 38.8636 44.6028 40.193 44.594 41.5214C44.6028 41.7506 44.5697 42.0594 44.8193 42.1789C45.0291 42.2371 45.2495 42.2323 45.467 42.2371C46.7294 42.2284 47.9918 42.2284 49.2552 42.2371C49.4718 42.2332 49.6932 42.2352 49.9049 42.1798C50.137 42.0031 50.1049 41.6826 50.1175 41.4243C50.1068 40.0949 50.1127 38.7645 50.1156 37.4351C50.101 37.2147 50.1146 36.9292 49.9 36.7971C49.7204 36.7525 49.5349 36.7534 49.3533 36.7495C48.0248 36.7563 46.6964 36.7573 45.3689 36.7495C45.1835 36.7515 44.997 36.7515 44.8154 36.7903Z" fill="#F1F2F2"/>
<path d="M51.0002 26.56C51.3217 26.559 51.6441 26.559 51.9665 26.56C51.9373 34.5578 51.9655 42.5566 51.9529 50.5544C51.9461 51.1691 51.5635 51.741 51.0391 52.0431C50.6769 52.2509 50.2486 52.2829 49.8408 52.2868C48.0268 52.28 46.2128 52.28 44.3988 52.2848C43.9589 52.2771 43.4899 52.3635 43.085 52.146C43.3258 51.8284 43.5501 51.4973 43.756 51.1555C43.9716 51.3089 44.2337 51.3468 44.493 51.3322C46.0167 51.3089 47.5412 51.3293 49.0649 51.3254C49.7388 51.34 50.4166 50.9865 50.7448 50.3903C51.0925 49.7571 50.9847 49.0084 50.9973 48.316C50.9973 41.064 50.9925 33.812 51.0002 26.56Z" fill="#E6E7E8"/>
<path d="M26.4371 51.3264C26.7051 51.3196 26.9712 51.2817 27.2363 51.239C27.4295 51.5459 27.6373 51.843 27.8461 52.1392C27.6801 52.2198 27.5043 52.2955 27.3149 52.2888C25.2417 52.2761 23.1674 52.2849 21.0932 52.282C20.1124 52.2742 19.1297 52.3169 18.1508 52.2285C18.0353 51.9421 17.9673 51.6333 18.0042 51.3235C20.8155 51.3235 23.6258 51.3186 26.4371 51.3264Z" fill="#E6E7E8"/>
<path d="M51.9658 26.56C52.2911 26.56 52.6164 26.5571 52.9417 26.5551C52.9456 34.8792 52.9417 43.2033 52.9437 51.5274C52.9427 52.449 52.127 53.2734 51.2025 53.2695C48.1689 53.255 45.1333 53.2938 42.1006 53.2491C42.4511 52.9034 42.7755 52.5305 43.0843 52.146C43.4892 52.3635 43.9583 52.2771 44.3982 52.2849C46.2121 52.28 48.0261 52.28 49.8401 52.2868C50.248 52.2829 50.6762 52.2509 51.0384 52.0431C51.5628 51.7411 51.9454 51.1691 51.9522 50.5544C51.9648 42.5566 51.9367 34.5578 51.9658 26.56Z" fill="#D1D3D4"/>
<path d="M21.032 36.8C21.2417 36.7446 21.4612 36.7524 21.6758 36.7485C23.0042 36.7602 24.3327 36.7534 25.6601 36.7505C25.8611 36.7728 26.1544 36.7165 26.2544 36.9456C26.3574 37.1933 26.3282 37.47 26.337 37.7322C26.3146 39.0908 26.3506 40.4512 26.3224 41.8088C26.3389 42.0691 26.0952 42.2458 25.8514 42.2235C24.557 42.2497 23.2616 42.2176 21.9671 42.2351C21.6525 42.2332 21.333 42.2545 21.0252 42.1788C20.7911 42.004 20.8251 41.6816 20.8125 41.4252C20.8232 40.0949 20.8174 38.7645 20.8144 37.4351C20.8319 37.2185 20.8106 36.9204 21.032 36.8Z" fill="#D1D3D4"/>
<path d="M28.9291 36.8263C29.1835 36.7263 29.4661 36.7525 29.7351 36.7457C31.1034 36.7738 32.4726 36.7243 33.8399 36.7816C31.9433 37.1322 30.1459 38.0265 28.764 39.3783C28.7708 38.6976 28.7388 38.0168 28.7563 37.3371C28.7757 37.1613 28.7572 36.9331 28.9291 36.8263Z" fill="#D1D3D4"/>
<path d="M37.0889 36.7806C38.5552 36.7262 40.0235 36.7689 41.4908 36.7485C41.7306 36.7573 42.1181 36.7446 42.1424 37.0699C42.222 37.8138 42.1637 38.5674 42.1375 39.3141C41.9948 39.1888 41.8413 39.0781 41.6928 38.9606C40.4051 37.8167 38.7708 37.1049 37.0889 36.7806Z" fill="#D1D3D4"/>
<path d="M44.8152 36.7903C44.9967 36.7515 45.1832 36.7515 45.3687 36.7495C46.6961 36.7573 48.0246 36.7563 49.353 36.7495C49.5346 36.7534 49.7201 36.7524 49.8997 36.7971C50.1143 36.9292 50.1007 37.2147 50.1153 37.4351C50.1124 38.7645 50.1066 40.0949 50.1173 41.4243C50.1046 41.6826 50.1367 42.0031 49.9046 42.1798C49.6929 42.2352 49.4715 42.2332 49.2549 42.2371C47.9916 42.2284 46.7292 42.2284 45.4668 42.2371C45.2492 42.2322 45.0288 42.2371 44.819 42.1788C44.5695 42.0594 44.6025 41.7506 44.5938 41.5214C44.6025 40.193 44.6015 38.8636 44.5938 37.5342C44.6064 37.2788 44.5763 36.9564 44.8152 36.7903Z" fill="#D1D3D4"/>
<path d="M20.8892 44.4211C21.0019 44.1579 21.334 44.1744 21.5728 44.157C22.708 44.157 23.8423 44.1725 24.9765 44.155C25.3426 44.1482 25.7087 44.1754 26.0709 44.2279C25.6951 45.9709 25.8097 47.8179 26.4147 49.4969C26.0787 49.6135 25.7262 49.6911 25.3678 49.6834C24.1365 49.6708 22.9042 49.6727 21.6719 49.6834C21.4272 49.6649 21.1407 49.7018 20.9368 49.5397C20.8057 49.3581 20.828 49.1163 20.8115 48.9036C20.8183 47.6383 20.8251 46.373 20.8105 45.1076C20.8164 44.8785 20.8086 44.6396 20.8892 44.4211Z" fill="#D1D3D4"/>
<path d="M44.8703 44.2182C45.9064 44.0997 46.9513 44.1871 47.9913 44.1628C48.5856 44.1822 49.1887 44.0987 49.7781 44.2075C50.0956 44.2735 50.1054 44.6532 50.1151 44.9115C50.116 46.2089 50.1024 47.5072 50.1199 48.8046C50.1024 49.0493 50.1364 49.327 49.9927 49.5397C49.8199 49.6892 49.5683 49.662 49.3557 49.6815C48.0583 49.6756 46.76 49.6679 45.4626 49.6844C45.1412 49.7009 44.8324 49.6057 44.5488 49.4639C45.1305 47.7879 45.2441 45.9525 44.8703 44.2182Z" fill="#D1D3D4"/>
<path d="M18.9579 30.4463C19.1288 30.3074 19.4046 30.4055 19.5027 30.5812C19.5862 30.9512 19.5415 31.3348 19.5483 31.7106C19.5454 37.1487 19.5483 42.5867 19.5474 48.0248C19.5172 48.8512 19.6144 49.6853 19.493 50.5059C19.3085 50.535 19.0948 50.6088 18.9307 50.4806C18.7569 50.3728 18.7792 50.1475 18.7666 49.9718C18.7734 43.6568 18.7715 37.3409 18.7676 31.026C18.7841 30.8269 18.7647 30.5686 18.9579 30.4463Z" fill="white"/>
<rect x="20.1846" y="36.2631" width="30.1053" height="17.1053" fill="#F1F2F2"/>
<rect x="27.0264" y="17.7894" width="25.3158" height="6.84211" fill="#289FCE"/>
<circle cx="22.9209" cy="19.4999" r="6.5" fill="#C385FF"/>
<path d="M20.8475 11.6642C22.1802 11.5551 23.548 11.7131 24.7864 12.2344C26.5655 12.9534 28.0581 14.3425 28.9129 16.0596C29.705 17.6298 29.9554 19.4643 29.6153 21.1898C29.4277 22.1814 29.0358 23.1278 28.5017 23.9827C28.4878 24.0021 28.4601 24.0427 28.4462 24.0621C27.4925 25.5159 26.0544 26.6258 24.4269 27.2266C23.9593 27.1092 23.4722 27.124 22.999 27.0371C21.5656 26.8042 20.1997 26.1693 19.1027 25.2155C17.6138 23.9623 16.6268 22.1361 16.368 20.2101C16.1915 18.7471 16.3652 17.225 16.9853 15.8803C17.6656 14.3369 18.843 13.0209 20.3069 12.1835C20.5869 12.0338 20.8762 11.9007 21.1507 11.7409C21.0749 11.7215 20.9233 11.6836 20.8475 11.6642ZM24.8594 15.798C23.4177 17.1936 22.0222 18.639 20.5888 20.0438C20.4945 20.1538 20.3263 20.1297 20.2431 20.0216C19.6775 19.4745 19.1378 18.9015 18.5685 18.3599C18.4677 18.2499 18.2995 18.2934 18.2173 18.4006C17.6609 18.9588 17.0953 19.5087 16.5491 20.0761C16.4345 20.1722 16.4955 20.3414 16.5953 20.4208C17.5325 21.3626 18.4733 22.3006 19.4132 23.2396C19.8041 23.6398 20.4372 23.7683 20.9547 23.5575C21.2754 23.4429 21.5019 23.1777 21.7375 22.9448C23.4149 21.2646 25.0951 19.5872 26.7734 17.908C26.901 17.8082 26.9647 17.6187 26.8159 17.5032C26.303 16.9718 25.7716 16.4579 25.2531 15.9321C25.1543 15.8369 24.999 15.6742 24.8594 15.798Z" fill="#C385FF"/>
<path d="M15.9398 14.1003C17.2226 12.7445 18.9942 11.8711 20.8482 11.6641C20.9239 11.6835 21.0755 11.7214 21.1513 11.7408C20.8768 11.9007 20.5875 12.0338 20.3075 12.1835C18.8436 13.0208 17.6662 14.3369 16.986 15.8803C16.3658 17.225 16.1921 18.7471 16.3686 20.2101C16.6274 22.1361 17.6144 23.9623 19.1033 25.2155C20.2003 26.1693 21.5662 26.8042 22.9997 27.0371C23.4728 27.1239 23.9599 27.1092 24.4275 27.2265C22.9636 27.7441 21.35 27.8319 19.8408 27.4576C17.8834 26.989 16.1329 25.7432 15.0295 24.063C15.0156 24.0436 14.9888 24.0048 14.9759 23.9854C14.4352 23.1324 14.0452 22.1823 13.8585 21.1879C13.3521 18.6732 14.1432 15.9366 15.9398 14.1003Z" fill="#A855F7"/>
<path d="M25.0165 18.3111C24.2425 18.3111 23.926 17.7638 24.3109 17.0924C24.5333 16.7032 24.4007 16.2072 24.0116 15.9848L23.2718 15.5615C22.9339 15.3605 22.4977 15.4802 22.2968 15.818L22.2497 15.8993C21.8649 16.5707 21.232 16.5707 20.8428 15.8993L20.7958 15.818C20.6033 15.4802 20.1672 15.3605 19.8293 15.5615L19.0895 15.9848C18.7004 16.2072 18.5678 16.7075 18.7902 17.0967C19.1793 17.7638 18.8629 18.3111 18.0889 18.3111C17.6441 18.3111 17.2764 18.6746 17.2764 19.1236V19.8763C17.2764 20.321 17.6399 20.6888 18.0889 20.6888C18.8629 20.6888 19.1793 21.2361 18.7902 21.9075C18.5678 22.2967 18.7004 22.7927 19.0895 23.0151L19.8293 23.4384C20.1672 23.6394 20.6033 23.5197 20.8043 23.1819L20.8514 23.1006C21.2362 22.4292 21.8691 22.4292 22.2583 23.1006L22.3053 23.1819C22.5063 23.5197 22.9425 23.6394 23.2803 23.4384L24.0201 23.0151C24.4093 22.7927 24.5418 22.2924 24.3195 21.9075C23.9303 21.2361 24.2468 20.6888 25.0208 20.6888C25.4655 20.6888 25.8333 20.3253 25.8333 19.8763V19.1236C25.829 18.6789 25.4655 18.3111 25.0165 18.3111ZM21.5527 20.8898C20.7872 20.8898 20.1629 20.2654 20.1629 19.4999C20.1629 18.7345 20.7872 18.1101 21.5527 18.1101C22.3181 18.1101 22.9425 18.7345 22.9425 19.4999C22.9425 20.2654 22.3181 20.8898 21.5527 20.8898Z" fill="white"/>
<path d="M21.135 36.8668C22.7033 36.8221 24.2774 36.858 25.8476 36.8483C26.1059 36.8163 26.3448 37.0289 26.3254 37.2931C26.3429 38.7186 26.3215 40.1451 26.3342 41.5707C26.3176 41.7843 26.3691 42.0426 26.2069 42.2145C26.0681 42.3621 25.8467 42.3349 25.6631 42.3475C24.2677 42.3427 22.8713 42.3437 21.4758 42.3466C21.2933 42.3349 21.0728 42.3573 20.9388 42.2058C20.8058 42.0611 20.8417 41.8474 20.8281 41.6688C20.8359 40.2413 20.8301 38.8148 20.8301 37.3873C20.8155 37.1756 20.8971 36.9114 21.135 36.8668Z" fill="#064B82"/>
<path d="M29.0918 36.8628C30.5689 36.822 32.0488 36.8648 33.5268 36.8424C33.7113 36.856 33.923 36.8152 34.0861 36.925C34.2629 37.0541 34.2395 37.294 34.2512 37.4882C34.2473 38.8798 34.2463 40.2733 34.2512 41.6658C34.2376 41.861 34.2726 42.1028 34.1036 42.2436C33.9735 42.3572 33.7851 42.3329 33.6268 42.3465C32.2304 42.3446 30.8349 42.3417 29.4395 42.3475C29.2132 42.3446 28.9132 42.3621 28.8015 42.1144C28.7423 41.9057 28.7597 41.6852 28.7549 41.4706C28.7685 40.0761 28.7471 38.6817 28.7646 37.2882C28.7432 37.0842 28.8811 36.8813 29.0918 36.8628Z" fill="#064B82"/>
<path d="M36.9671 36.8687C38.5345 36.8182 40.1076 36.86 41.6769 36.8484C41.9371 36.8134 42.1993 37.0154 42.1673 37.2912C42.1818 38.7497 42.1653 40.2093 42.175 41.6688C42.1585 41.8552 42.1993 42.0834 42.0468 42.2262C41.9012 42.3709 41.6769 42.333 41.4914 42.3476C40.0959 42.3418 38.7005 42.3447 37.3051 42.3466C37.1448 42.333 36.9574 42.3573 36.8283 42.2437C36.6574 42.1038 36.6923 41.8611 36.6797 41.6649C36.6865 40.2403 36.6787 38.8158 36.6826 37.3912C36.6739 37.1853 36.7321 36.9163 36.9671 36.8687Z" fill="#D1D3D4"/>
<path d="M44.9227 36.8638C46.3987 36.8191 47.8786 36.8657 49.3557 36.8424C49.5606 36.857 49.8101 36.8065 49.9733 36.9648C50.1141 37.0978 50.0937 37.3066 50.1024 37.4834C50.0927 38.9409 50.1053 40.3995 50.0966 41.8571C50.1306 42.1203 49.9169 42.3611 49.648 42.3378C48.1224 42.3504 46.5959 42.3475 45.0713 42.3397C44.7955 42.3757 44.5789 42.128 44.6042 41.862C44.5935 40.3704 44.6022 38.8778 44.6003 37.3853C44.5847 37.1697 44.678 36.8968 44.9227 36.8638Z" fill="#D1D3D4"/>
<path d="M21.135 45.0772C22.7033 45.0326 24.2774 45.0685 25.8476 45.0588C26.1059 45.0267 26.3448 45.2394 26.3254 45.5035C26.3429 46.9291 26.3215 48.3556 26.3342 49.7812C26.3176 49.9948 26.3691 50.2531 26.2069 50.425C26.0681 50.5726 25.8467 50.5454 25.6631 50.558C24.2677 50.5532 22.8713 50.5541 21.4758 50.557C21.2933 50.5454 21.0728 50.5677 20.9388 50.4162C20.8058 50.2716 20.8417 50.0579 20.8281 49.8792C20.8359 48.4517 20.8301 47.0252 20.8301 45.5977C20.8155 45.386 20.8971 45.1219 21.135 45.0772Z" fill="#D1D3D4"/>
<path d="M29.0918 45.0733C30.5689 45.0325 32.0488 45.0753 33.5268 45.0529C33.7113 45.0665 33.923 45.0257 34.0861 45.1355C34.2629 45.2646 34.2395 45.5045 34.2512 45.6987C34.2473 47.0902 34.2463 48.4837 34.2512 49.8763C34.2376 50.0715 34.2726 50.3133 34.1036 50.4541C33.9735 50.5677 33.7851 50.5434 33.6268 50.557C32.2304 50.5551 30.8349 50.5521 29.4395 50.558C29.2132 50.5551 28.9132 50.5725 28.8015 50.3249C28.7423 50.1161 28.7597 49.8957 28.7549 49.6811C28.7685 48.2866 28.7471 46.8921 28.7646 45.4986C28.7432 45.2947 28.8811 45.0918 29.0918 45.0733Z" fill="#D1D3D4"/>
<path d="M36.9671 45.0792C38.5345 45.0287 40.1076 45.0705 41.6769 45.0588C41.9371 45.0239 42.1993 45.2259 42.1673 45.5016C42.1818 46.9602 42.1653 48.4197 42.175 49.8793C42.1585 50.0657 42.1993 50.2939 42.0468 50.4367C41.9012 50.5814 41.6769 50.5435 41.4914 50.5581C40.0959 50.5522 38.7005 50.5551 37.3051 50.5571C37.1448 50.5435 36.9574 50.5678 36.8283 50.4542C36.6574 50.3143 36.6923 50.0715 36.6797 49.8754C36.6865 48.4508 36.6787 47.0262 36.6826 45.6017C36.6739 45.3958 36.7321 45.1268 36.9671 45.0792Z" fill="#D1D3D4"/>
<path d="M44.9227 45.0743C46.3987 45.0296 47.8786 45.0762 49.3557 45.0529C49.5606 45.0675 49.8101 45.017 49.9733 45.1753C50.1141 45.3083 50.0937 45.5171 50.1024 45.6938C50.0927 47.1514 50.1053 48.61 50.0966 50.0676C50.1306 50.3307 49.9169 50.5716 49.648 50.5483C48.1224 50.5609 46.5959 50.558 45.0713 50.5502C44.7955 50.5861 44.5789 50.3385 44.6042 50.0724C44.5935 48.5809 44.6022 47.0883 44.6003 45.5958C44.5847 45.3802 44.678 45.1073 44.9227 45.0743Z" fill="#D1D3D4"/>
</g>
<defs>
<clipPath id="clip0_267_8950">
<rect width="52" height="52" rx="26" fill="white"/>
</clipPath>
</defs>
</svg>
