<svg width="77" height="76" viewBox="0 0 77 76" fill="none" xmlns="http://www.w3.org/2000/svg">
<g clip-path="url(#clip0_446_9296)">
<rect x="0.839844" width="76" height="76" rx="18.0952" fill="#F5F5F5"/>
<g clip-path="url(#clip1_446_9296)">
<path d="M39.8849 4H91.7721C93.2981 4.11422 94.5797 5.51008 94.5186 7.04672C94.52 22.0585 94.5186 37.0703 94.5186 52.0821C94.5545 53.2456 93.8519 54.3864 92.7907 54.8659C92.0749 55.2231 91.2528 55.1448 90.4785 55.1501C90.4639 53.5059 90.4931 51.8603 90.4639 50.2161C90.3948 48.1721 88.9126 46.2769 86.9457 45.7151C86.4848 45.569 86 45.5291 85.5206 45.4933C85.5113 37.9827 85.5206 30.4722 85.5153 22.963C86.5738 22.9683 87.6323 22.951 88.6895 22.9656C89.1012 22.9523 89.5156 23.2472 89.5807 23.6642C89.6789 24.3602 89.6099 25.0654 89.6271 25.764C89.0587 25.8012 88.3747 25.6365 87.9178 26.0681C87.619 26.3231 87.538 26.7295 87.5513 27.1027C87.5593 30.516 87.542 33.9293 87.5593 37.3413C87.5473 37.9442 88.0905 38.4741 88.6935 38.4542C89.7971 38.4662 90.9008 38.4741 92.0045 38.4489C92.6473 38.4502 93.1427 37.8287 93.0856 37.2045C93.0856 33.7978 93.0896 30.3912 93.0843 26.9859C93.1161 26.4652 92.7735 25.938 92.2582 25.8145C91.8504 25.7401 91.4347 25.772 91.0243 25.7706C91.0124 25.0734 91.0429 24.3748 91.0124 23.6788C90.9593 22.5566 89.9578 21.5724 88.8303 21.5591C87.7253 21.5419 86.6203 21.5605 85.5153 21.5525C85.5139 20.3054 85.5246 19.0583 85.5139 17.8125C85.5193 16.7885 84.9641 15.7858 84.0902 15.2545C83.5178 14.888 82.8298 14.8083 82.1803 14.6675C71.0785 12.3791 59.4986 12.4641 48.43 14.8986C47.175 15.1961 46.2014 16.3888 46.1722 17.681C46.1496 18.9706 46.1709 20.2616 46.1656 21.5525C44.9743 21.5591 43.7843 21.5445 42.5943 21.5578C41.4614 21.5392 40.3975 22.5114 40.363 23.6509C40.3364 24.3522 40.3351 25.0548 40.3577 25.756C39.9008 25.7826 39.3696 25.7016 39.0003 26.0323C38.6723 26.2873 38.578 26.7176 38.5913 27.1134C38.5939 30.4323 38.5953 33.7527 38.59 37.073C38.5807 37.4701 38.6497 37.911 38.9804 38.174C39.3045 38.4848 39.7813 38.4622 40.1983 38.4662C41.1293 38.4489 42.0617 38.4795 42.994 38.4542C43.5943 38.4702 44.1349 37.9402 44.1203 37.3373C44.1389 33.9293 44.1189 30.5213 44.1296 27.1134C44.1707 26.6087 43.9423 26.0655 43.4536 25.8649C42.905 25.6896 42.3167 25.7945 41.7509 25.7733C41.7615 25.1119 41.7257 24.4491 41.7615 23.7891C41.7682 23.3521 42.16 22.9763 42.5943 22.9736C43.7843 22.943 44.9756 22.9709 46.1656 22.963C46.1603 30.4722 46.1696 37.9827 46.1603 45.492C45.1788 45.5225 44.1986 45.7934 43.3871 46.3592C42.0696 47.2358 41.2289 48.7751 41.2103 50.3582C41.1957 51.9546 41.213 53.5523 41.2024 55.1501C40.6857 55.1461 40.1664 55.178 39.6538 55.1023C38.6178 54.9429 37.7094 54.1832 37.3495 53.2017C37.1078 52.5921 37.1675 51.9254 37.1609 51.2839C37.1636 36.5417 37.1609 21.7982 37.1622 7.05602C37.0945 5.52336 38.3668 4.13016 39.8849 4Z" fill="#2587AD"/>
<path d="M45.4297 47.8906C46.3381 47.6741 47.3462 48.0021 47.9744 48.6874C48.6743 49.4166 48.9067 50.5601 48.5216 51.4991C48.1231 52.5948 46.9477 53.3306 45.7869 53.2177C44.504 53.1406 43.3883 52.0263 43.3153 50.742C43.1798 49.4352 44.1454 48.1469 45.4297 47.8906Z" fill="white"/>
<path d="M45.3106 54.5431C46.162 54.3174 47.1235 54.5285 47.7783 55.1235C48.5074 55.7491 48.866 56.789 48.6403 57.728C48.4862 58.4292 48.0479 59.0707 47.4303 59.4439C46.5737 59.9845 45.4049 59.9858 44.5576 59.4253C43.6638 58.8782 43.1631 57.7718 43.3397 56.7399C43.4818 55.6999 44.296 54.8021 45.3106 54.5431Z" fill="white"/>
<path d="M48.4302 14.8986C59.4988 12.4641 71.0787 12.3791 82.1805 14.6675C82.8299 14.8083 83.5179 14.888 84.0903 15.2545C84.9642 15.7858 85.5194 16.7885 85.5141 17.8125C85.5247 19.0583 85.5141 20.3054 85.5154 21.5525C85.5167 22.0227 85.5167 22.4928 85.5154 22.963C85.5207 30.4722 85.5114 37.9827 85.5207 45.4933C86.0002 45.5291 86.4849 45.569 86.9458 45.7151C88.9127 46.2769 90.3949 48.1721 90.464 50.2161C90.4932 51.8603 90.464 53.5059 90.4786 55.1501C90.4839 57.8754 90.4773 60.6007 90.4826 63.3247C75.7165 63.3353 60.9504 63.3074 46.1843 63.3327C44.5228 63.3274 42.8613 63.3406 41.2012 63.3247C41.2025 60.5994 41.1998 57.8754 41.2025 55.1501C41.2131 53.5524 41.1959 51.9546 41.2105 50.3582C41.2291 48.7751 42.0698 47.2358 43.3873 46.3592C44.1988 45.7934 45.1789 45.5225 46.1604 45.492C46.1697 37.9827 46.1604 30.4722 46.1657 22.963C46.1657 22.4928 46.1657 22.0227 46.1657 21.5525C46.171 20.2616 46.1498 18.9706 46.1723 17.681C46.2016 16.3888 47.1751 15.1961 48.4302 14.8986ZM57.0988 17.0488C57.0948 17.9719 57.0962 18.8936 57.0975 19.8166C62.9266 19.818 68.7558 19.822 74.5836 19.814C74.5836 18.8923 74.5863 17.9705 74.5823 17.0488C68.7545 17.0488 62.9266 17.0502 57.0988 17.0488ZM51.1289 22.7372C51.1342 28.0723 51.1249 33.4087 51.1329 38.7438C60.9384 38.7411 70.7453 38.7411 80.5509 38.7438C80.5575 33.4087 80.5495 28.0723 80.5548 22.7372C70.7466 22.7319 60.9371 22.7319 51.1289 22.7372ZM55.5795 46.5916C55.5768 47.1335 55.5755 47.6754 55.5821 48.2173C62.422 48.2159 69.2605 48.2186 76.099 48.2159C76.1043 47.6741 76.103 47.1322 76.1003 46.5916C69.2605 46.589 62.4193 46.5877 55.5795 46.5916ZM45.4299 47.8906C44.1456 48.1469 43.1801 49.4352 43.3155 50.742C43.3886 52.0263 44.5042 53.1406 45.7872 53.2177C46.948 53.3306 48.1234 52.5948 48.5218 51.4991C48.907 50.5601 48.6745 49.4166 47.9746 48.6874C47.3464 48.0021 46.3384 47.6741 45.4299 47.8906ZM85.1422 47.8826C84.1275 48.0752 83.2722 48.9066 83.0477 49.9146C82.7662 50.9997 83.2815 52.2256 84.2324 52.8099C85.0359 53.3279 86.121 53.3638 86.9591 52.9029C87.6749 52.5217 88.1995 51.7966 88.331 50.9944C88.5077 50.0567 88.1318 49.0434 87.3907 48.4431C86.7718 47.9424 85.9258 47.7059 85.1422 47.8826ZM55.5954 50.5176C55.5609 51.0555 55.5861 51.5934 55.5715 52.1326C60.1004 52.1751 64.632 52.1379 69.1635 52.1512C71.4784 52.1352 73.796 52.1804 76.1109 52.1286C76.0538 51.604 76.1893 51.0236 76.0432 50.5335C69.2286 50.507 62.4113 50.5375 55.5954 50.5176ZM45.3117 54.5431C44.297 54.8021 43.4829 55.6999 43.3408 56.7399C43.1641 57.7718 43.6648 58.8781 44.5587 59.4253C45.406 59.9858 46.5748 59.9845 47.4314 59.4439C48.049 59.0707 48.4873 58.4292 48.6413 57.728C48.8671 56.789 48.5085 55.7491 47.7794 55.1235C47.1246 54.5285 46.163 54.3174 45.3117 54.5431ZM55.5795 54.4648C55.5768 55.004 55.5768 55.5445 55.5795 56.0851C62.4206 56.0864 69.2605 56.0864 76.1003 56.0838C76.103 55.5445 76.103 55.004 76.1003 54.4648C69.2605 54.4634 62.4206 54.4621 55.5795 54.4648ZM85.0213 54.5325C83.9535 54.7862 83.1102 55.7504 82.9906 56.8408C82.8645 57.8488 83.3718 58.914 84.2444 59.4386C85.2352 60.0827 86.647 59.9513 87.5036 59.1358C88.3111 58.4093 88.5966 57.1755 88.1876 56.1688C87.732 54.9323 86.295 54.1885 85.0213 54.5325ZM55.5795 58.4C55.5768 58.9406 55.5755 59.4824 55.5808 60.0243C62.4193 60.0256 69.2578 60.023 76.0963 60.0256C76.1056 59.4838 76.103 58.9419 76.1003 58.4C69.2605 58.396 62.4206 58.3974 55.5795 58.4Z" fill="#289FCE"/>
<path d="M57.0976 17.0488C62.9254 17.0502 68.7533 17.0488 74.5811 17.0488C74.5851 17.9705 74.5824 18.8923 74.5824 19.814C68.7546 19.822 62.9254 19.818 57.0963 19.8166C57.095 18.8936 57.0936 17.9719 57.0976 17.0488Z" fill="#0D3859"/>
<path d="M40.363 23.6509C40.3975 22.5114 41.4614 21.5392 42.5943 21.5578C43.7843 21.5445 44.9743 21.5591 46.1656 21.5525C46.1656 22.0227 46.1656 22.4928 46.1656 22.963C44.9756 22.9709 43.7843 22.943 42.5943 22.9736C42.16 22.9762 41.7682 23.3521 41.7615 23.7891C41.7257 24.4491 41.7615 25.1119 41.7509 25.7733C42.3167 25.7945 42.905 25.6896 43.4536 25.8649C43.9423 26.0655 44.1707 26.6087 44.1296 27.1134C44.1189 30.5213 44.1389 33.9293 44.1203 37.3373C44.1349 37.9402 43.5943 38.4702 42.994 38.4542C42.0617 38.4795 41.1293 38.4489 40.1983 38.4662C39.7813 38.4622 39.3045 38.4848 38.9804 38.174C38.6497 37.911 38.5807 37.4701 38.59 37.073C38.5953 33.7527 38.5939 30.4323 38.5913 27.1134C38.578 26.7176 38.6723 26.2873 39.0004 26.0323C39.3696 25.7016 39.9008 25.7826 40.3577 25.756C40.3351 25.0548 40.3364 24.3522 40.363 23.6509Z" fill="#0D3859"/>
<path d="M51.1285 22.7371C60.9367 22.7318 70.7462 22.7318 80.5544 22.7371C80.5491 28.0722 80.5571 33.4086 80.5504 38.7437C70.7449 38.741 60.938 38.741 51.1325 38.7437C51.1245 33.4086 51.1338 28.0722 51.1285 22.7371Z" fill="#0D3859"/>
<path d="M55.5783 46.5916C62.4181 46.5876 69.2593 46.589 76.0991 46.5916C76.1018 47.1322 76.1031 47.674 76.0978 48.2159C69.2593 48.2186 62.4208 48.2159 55.5809 48.2172C55.5743 47.6754 55.5756 47.1335 55.5783 46.5916Z" fill="#0D3859"/>
<path d="M55.5952 50.5175C62.4111 50.5374 69.2284 50.5069 76.043 50.5335C76.1891 51.0235 76.0536 51.6039 76.1107 52.1285C73.7958 52.1803 71.4782 52.1352 69.1633 52.1511C64.6318 52.1378 60.1002 52.175 55.5713 52.1325C55.5859 51.5933 55.5607 51.0554 55.5952 50.5175Z" fill="#0D3859"/>
<path d="M55.5781 54.4648C62.4193 54.4621 69.2591 54.4635 76.099 54.4648C76.1016 55.004 76.1016 55.5446 76.099 56.0838C69.2591 56.0864 62.4193 56.0864 55.5781 56.0851C55.5754 55.5446 55.5754 55.004 55.5781 54.4648Z" fill="#0D3859"/>
<path d="M55.5784 58.4C62.4196 58.3974 69.2594 58.3961 76.0993 58.4C76.1019 58.9419 76.1046 59.4838 76.0953 60.0257C69.2568 60.023 62.4183 60.0257 55.5798 60.0243C55.5745 59.4825 55.5758 58.9406 55.5784 58.4Z" fill="#0D3859"/>
<path d="M38.865 63.8838C39.4375 63.1958 40.403 63.318 41.1999 63.3246C42.86 63.3406 44.5215 63.3273 46.183 63.3326C60.9491 63.3074 75.7152 63.3353 90.4813 63.3246C91.2742 63.3193 92.2437 63.1958 92.8135 63.8825C93.6143 64.7072 93.2172 66.2571 92.1109 66.5825C91.2675 66.7964 90.3817 66.629 89.5211 66.6928C89.5171 67.9717 89.5476 69.2521 89.5091 70.531C89.4812 71.2655 88.8716 71.8512 88.1757 71.9999H81.9268C81.2216 71.8658 80.6 71.2801 80.5682 70.539C80.527 69.256 80.5655 67.9704 80.5522 66.6861C70.7427 66.6835 60.9345 66.6835 51.1263 66.6874C51.113 67.9731 51.1529 69.26 51.1104 70.5457C51.0758 71.2708 50.4742 71.8432 49.7889 71.9999H43.5374C42.8268 71.8711 42.2 71.2788 42.1681 70.535C42.1296 69.2534 42.1654 67.9704 42.1535 66.6888C41.2955 66.6343 40.4123 66.7937 39.5703 66.5839C38.4626 66.2611 38.0602 64.7072 38.865 63.8838Z" fill="#0D3859"/>
</g>
<path d="M19.0432 28H19.2949C19.2949 31.8165 19.2949 35.634 19.2949 39.4505C15.9828 39.4486 12.6697 39.4533 9.35757 39.4486C8.21726 38.5638 7.08073 37.5086 6.65015 36.0863C6.265 34.6905 6.79588 33.1906 7.6911 32.1042C8.89388 30.6459 10.6143 29.7223 12.3697 29.0949C14.5084 28.3435 16.7815 28.0303 19.0432 28Z" fill="#289FCE"/>
<path d="M5.67326 59.7083C7.88954 57.8289 10.719 56.6829 13.6214 56.5135C14.2923 61.2744 14.9822 66.0325 15.6588 70.7935C15.9276 72.6785 16.185 74.5664 16.4585 76.4515H0.841349C0.841349 74.4633 0.841349 72.476 0.841349 70.4887C0.829993 69.5358 0.881094 68.58 1.05616 67.6432C1.60219 64.5648 3.28191 61.7154 5.67326 59.7083Z" fill="#289FCE"/>
<path d="M19.2947 28H20.3887C23.1103 28.1486 25.8717 28.6747 28.2857 29.9892C29.6219 30.7235 30.872 31.737 31.578 33.1149C32.1183 34.1766 32.2839 35.493 31.7701 36.5973C31.2307 37.7774 30.255 38.6896 29.2358 39.4618C25.9228 39.4353 22.6088 39.458 19.2947 39.4505C19.2947 35.634 19.2947 31.8165 19.2947 28Z" fill="#2091BD"/>
<path d="M24.9807 56.5145C28.2142 56.6999 31.3513 58.1109 33.6584 60.3811C35.8189 62.4801 37.2582 65.3152 37.6349 68.3075C37.7844 69.3769 37.7418 70.4576 37.7484 71.5335C37.7484 73.1735 37.7484 74.8125 37.7484 76.4515H22.1389C22.4275 74.5722 22.665 72.6842 22.947 70.8039C23.6198 66.0401 24.323 61.2801 24.9807 56.5145Z" fill="#289FCE"/>
<path d="M9.35571 39.4484C12.6678 39.4532 15.9809 39.4484 19.293 39.4503C19.293 41.343 19.2949 43.2356 19.293 45.1282C17.8414 45.1263 16.3907 45.132 14.939 45.1263C13.3719 45.1065 11.8332 44.3948 10.797 43.2214C9.94622 42.2836 9.45792 41.0534 9.35855 39.7967C9.35666 39.6803 9.35571 39.5639 9.35571 39.4484Z" fill="#0D3859"/>
<path d="M19.2616 66.0126C19.3222 66.8728 19.2834 67.7358 19.2947 68.5979C19.2928 71.2154 19.2909 73.8339 19.2976 76.4514H16.4577C16.1842 74.5664 15.9268 72.6785 15.658 70.7934C16.8636 69.2026 18.039 67.5891 19.2616 66.0126Z" fill="#0D3859"/>
<path d="M19.2957 39.4503C22.6097 39.4579 25.9237 39.4352 29.2368 39.4617C29.233 39.6547 29.233 39.8478 29.2283 40.0408C29.0608 41.3657 28.4618 42.6394 27.4861 43.5593C26.4442 44.5614 25.0068 45.1576 23.557 45.1292C22.1366 45.1264 20.7161 45.1292 19.2957 45.1283C19.2976 43.2356 19.2957 41.343 19.2957 39.4503Z" fill="#12436A"/>
<path d="M19.2636 66.0125C19.2693 65.9879 19.2806 65.9396 19.2854 65.916C20.5118 67.5408 21.7382 69.1656 22.9476 70.8037C22.6656 72.684 22.4281 74.5719 22.1395 76.4513H19.2996C19.2929 73.8338 19.2948 71.2153 19.2967 68.5978C19.2854 67.7357 19.3242 66.8727 19.2636 66.0125Z" fill="#0D3859"/>
<path d="M9.35996 39.7968C9.45932 41.0535 9.94762 42.2837 10.7984 43.2215C11.8346 44.395 13.3733 45.1066 14.9404 45.1265C16.3921 45.1322 17.8428 45.1265 19.2944 45.1284C19.2954 48.4396 19.2944 51.7507 19.2935 55.061C19.2963 55.5303 19.3048 55.9997 19.2783 56.4691C18.3689 56.505 17.4586 56.4757 16.5492 56.4852C15.5432 56.4927 14.5344 56.2969 13.6156 55.8852C11.669 55.0477 10.1501 53.2894 9.60506 51.2426C9.41201 50.5461 9.34482 49.8221 9.35712 49.102C9.35996 45.9999 9.35523 42.8989 9.35996 39.7968Z" fill="#FFBB99"/>
<path d="M27.4852 43.5592C28.4609 42.6394 29.0599 41.3656 29.2274 40.0408C29.2359 43.2829 29.2293 46.525 29.2312 49.7671C29.1328 52.4092 27.3878 54.8715 24.9699 55.9153C24.2233 56.237 23.4198 56.45 22.606 56.485C21.5035 56.4878 20.402 56.4774 19.2996 56.4869C19.2901 58.2404 19.2929 59.9939 19.2996 61.7465C17.4098 59.9987 15.5143 58.2584 13.6216 56.5134C13.6179 56.3033 13.6169 56.0942 13.616 55.885C14.5348 56.2967 15.5436 56.4926 16.5496 56.485C17.459 56.4755 18.3693 56.5049 19.2787 56.4689C19.3052 55.9995 19.2967 55.5301 19.2939 55.0608C19.2948 51.7505 19.2958 48.4394 19.2948 45.1282C20.7153 45.1291 22.1357 45.1263 23.5561 45.1291C25.0059 45.1575 26.4433 44.5613 27.4852 43.5592Z" fill="#FFBB99"/>
<path d="M22.6064 56.485C23.4202 56.45 24.2237 56.237 24.9703 55.9153C24.9722 56.114 24.9741 56.3146 24.9807 56.5143C23.0909 58.2631 21.1973 60.0072 19.3 61.7465C19.2933 59.9939 19.2905 58.2404 19.3 56.4869C20.4024 56.4774 21.5039 56.4878 22.6064 56.485Z" fill="#FF9966"/>
<path d="M22.6064 56.485C23.4202 56.45 24.2237 56.237 24.9703 55.9153C24.9722 56.114 24.9741 56.3146 24.9807 56.5143C23.0909 58.2631 21.1973 60.0072 19.3 61.7465C19.2933 59.9939 19.2905 58.2404 19.3 56.4869C20.4024 56.4774 21.5039 56.4878 22.6064 56.485Z" fill="#FFBB99"/>
<path d="M13.621 56.5135C15.5136 58.2585 17.4091 59.9988 19.2989 61.7466C19.2809 63.1368 19.314 64.5269 19.2838 65.9161C19.279 65.9398 19.2677 65.9881 19.262 66.0127C18.0393 67.5892 16.864 69.2027 15.6584 70.7935C14.9818 66.0325 14.2919 61.2744 13.621 56.5135Z" fill="white"/>
<path d="M19.3008 61.7464C21.1982 60.007 23.0917 58.263 24.9815 56.5142C24.3239 61.2798 23.6207 66.0398 22.9479 70.8036C21.7385 69.1655 20.5121 67.5407 19.2856 65.9159C19.3159 64.5267 19.2828 63.1365 19.3008 61.7464Z" fill="#F2F2FC"/>
</g>
<defs>
<clipPath id="clip0_446_9296">
<rect x="0.839844" width="76" height="76" rx="38" fill="white"/>
</clipPath>
<clipPath id="clip1_446_9296">
<rect width="68" height="68" fill="white" transform="translate(31.8398 4)"/>
</clipPath>
</defs>
</svg>
