<svg width="77" height="76" viewBox="0 0 77 76" fill="none" xmlns="http://www.w3.org/2000/svg">
<g clip-path="url(#clip0_445_9002)">
<rect x="0.339844" width="76" height="76" rx="18.0952" fill="#F5F5F5"/>
<g clip-path="url(#clip1_445_9002)">
<path d="M5.41614 68.4035C6.79864 67.8188 8.53448 68.7229 8.86468 70.1795C9.1239 71.1809 8.74433 72.315 7.89724 72.9198C7.16896 73.4722 6.1614 73.5848 5.32202 73.23L5.35288 73.2068C5.78028 72.8998 6.21849 72.5711 6.47925 72.1036C6.95448 71.2904 6.92979 70.2135 6.40056 69.4327C6.12436 69.0439 5.75251 68.7368 5.41614 68.4035Z" fill="#DDDAEC"/>
<path d="M43.8669 68.4375C45.4624 67.6675 47.5408 69.0315 47.4636 70.7982C47.5886 72.585 45.5087 73.9953 43.887 73.2392L43.9148 73.2161C44.7109 72.6729 45.3899 71.8289 45.3405 70.8137C45.3729 69.7953 44.6755 68.9636 43.8669 68.4375Z" fill="#DDDAEC"/>
<path d="M4.25587 44.1125C5.43624 43.0942 7.35415 43.1436 8.48206 44.219C10.1531 45.8345 11.8272 47.45 13.4797 49.0871C14.3639 49.9805 14.2373 51.5651 13.2807 52.3613C11.7146 53.8826 10.1531 55.4102 8.58389 56.93C7.69052 57.8265 6.25555 58.1181 5.08753 57.6259C4.26975 57.3126 3.72354 56.5983 3.13104 55.9903C4.85762 54.128 6.79868 52.4585 8.54378 50.61C6.76782 48.8248 4.94249 47.0889 3.14184 45.3284C3.40723 44.8439 3.87167 44.4998 4.25587 44.1125Z" fill="#0D3859"/>
<path d="M3.83155 70.3276C3.9843 69.4589 4.64161 68.7738 5.41618 68.4035C5.75255 68.7368 6.1244 69.0438 6.40059 69.4327C6.92983 70.2134 6.95452 71.2904 6.47928 72.1035C6.21852 72.5711 5.78032 72.8997 5.35292 73.2068C4.25895 72.7485 3.57233 71.4941 3.83155 70.3276Z" fill="#F9F6F6"/>
<path d="M42.4629 69.9526C42.6943 69.2722 43.2467 68.7692 43.867 68.4374C44.6755 68.9636 45.3729 69.7953 45.3405 70.8136C45.3899 71.8289 44.711 72.6729 43.9148 73.216C42.6634 72.7377 41.9722 71.2055 42.4629 69.9526Z" fill="#F9F6F6"/>
<path d="M25.4523 30.1624C26.1282 30.1269 26.8117 30.1084 27.486 30.1748C28.2837 30.3337 28.6509 31.4122 28.1093 32.0232C27.6032 32.6636 26.7083 32.3966 26.0063 32.4537C25.4616 32.517 24.8367 32.3257 24.6099 31.7825C24.2751 31.1329 24.7318 30.2627 25.4523 30.1624Z" fill="#FDCF17"/>
<path d="M5.71277 63.0926C7.15391 63.0001 8.59658 63.2886 9.89885 63.9104C10.911 64.4906 11.8461 65.2235 12.5435 66.1662C13.4708 67.379 13.9877 68.8711 14.105 70.3878C14.2207 72.5449 13.406 74.7451 11.8723 76.2727C10.1951 78.0101 7.66 78.8772 5.27148 78.493C6.24355 78.1705 7.22797 77.8295 8.08432 77.2555C9.55939 76.2279 10.7444 74.7312 11.2088 72.9753C11.9649 70.4017 11.2644 67.4469 9.39584 65.5151C8.42223 64.4597 7.14311 63.7391 5.76832 63.3534C5.75443 63.2886 5.72666 63.1574 5.71277 63.0926Z" fill="#21386B"/>
<path d="M44.0983 63.1035C45.5549 62.9955 47.0269 63.244 48.3461 63.8797C49.403 64.4413 50.3551 65.2112 51.0756 66.1725C51.9906 67.3853 52.5276 68.8681 52.6217 70.3833C52.7883 72.9323 51.5879 75.5183 49.5342 77.035C47.8971 78.2756 45.7478 78.8264 43.7188 78.4808C45.5688 78.0487 47.3247 77.0582 48.4603 75.509C49.6484 73.9182 50.2656 71.863 49.9755 69.8833C49.7178 67.5334 48.2751 65.3439 46.2184 64.1775C45.5533 63.7346 44.7232 63.6143 44.0983 63.1035Z" fill="#092D48"/>
<path d="M-0.329857 19.1813C-0.101498 19.0841 0.153093 19.0949 0.396883 19.0887C6.92981 19.0949 13.4643 19.0841 19.9972 19.0933C20.6082 19.064 21.1745 19.584 21.1868 20.1965C21.2362 20.8446 20.6499 21.4402 20.0018 21.4031C13.3624 21.4031 6.72151 21.4093 0.0821155 21.4001C-0.541244 21.4093 -1.089 20.8261 -1.04425 20.2027C-1.03654 19.7599 -0.738744 19.3464 -0.329857 19.1813Z" fill="#FDCF17"/>
<path d="M-5.26234 25.2064C-5.0417 25.083 -4.78248 25.0691 -4.5356 25.066C2.25192 25.0675 9.03944 25.0645 15.8254 25.0675C16.4256 25.012 17.0274 25.4517 17.1045 26.0597C17.2233 26.7154 16.6586 27.3912 15.989 27.3774C9.09498 27.3835 2.19791 27.3804 -4.69607 27.3789C-5.18828 27.4005 -5.66351 27.0672 -5.81472 26.5997C-6.00451 26.0813 -5.75146 25.4564 -5.26234 25.2064Z" fill="#FDCF17"/>
<path d="M-2.94944 30.4447C-1.21823 30.3521 0.523782 30.4339 2.25808 30.403C2.66388 30.3753 3.10517 30.4787 3.36902 30.8104C3.78716 31.2733 3.71927 32.0664 3.22552 32.4506C2.96013 32.6851 2.59445 32.7298 2.25345 32.7206C0.605559 32.7113 -1.04233 32.7314 -2.69022 32.7113C-3.27038 32.7052 -3.78419 32.1944 -3.79807 31.6174C-3.83665 31.0897 -3.45862 30.5759 -2.94944 30.4447Z" fill="#FDCF17"/>
<path d="M6.91329 30.4248C10.297 30.3786 13.6823 30.4218 17.0676 30.4032C17.6308 30.3307 18.2742 30.5653 18.4778 31.1362C18.8019 31.866 18.1677 32.7655 17.3731 32.7162C13.9816 32.7239 10.5902 32.7192 7.19874 32.7177C6.6371 32.7578 6.08163 32.3505 5.98134 31.7935C5.8363 31.1809 6.28839 30.5112 6.91329 30.4248Z" fill="#FDCF17"/>
<path d="M24.4471 38.2261C24.4641 37.629 24.9455 37.0766 25.5581 37.0658C26.2092 37.0133 26.7662 37.5842 26.7832 38.2215C26.7693 46.7618 26.7616 55.3021 26.7863 63.8425C31.6806 63.8749 36.5764 63.8039 41.4707 63.878C40.4014 64.4319 39.4433 65.2049 38.7134 66.1662C34.7372 66.1631 30.761 66.1523 26.7848 66.1724C26.7601 67.5765 26.7739 68.9836 26.7817 70.3893C26.7678 71.025 26.2092 71.5959 25.5612 71.5465C24.9486 71.5342 24.4657 70.9833 24.4456 70.3862C24.4626 68.9821 24.4688 67.5765 24.4502 66.1724C20.4817 66.1508 16.5117 66.1646 12.5431 66.1662C11.8457 65.2234 10.9107 64.4905 9.8985 63.9104C10.7903 63.8116 11.6883 63.8533 12.5833 63.8471C16.5394 63.844 20.4956 63.8548 24.4533 63.8425C24.4595 55.3037 24.4688 46.7649 24.4471 38.2261Z" fill="#0D3859"/>
<path d="M-11.1919 64.9459C-11.1765 64.341 -10.6288 63.8596 -10.0378 63.8411C-6.66333 63.8581 -3.28731 63.8442 0.0887013 63.8473C1.02991 63.855 1.97267 63.818 2.91233 63.892C1.85386 64.4521 0.903389 65.219 0.179737 66.1741C-3.22559 66.1525 -6.63247 66.1556 -10.0393 66.1741C-10.6766 66.1633 -11.2444 65.5939 -11.1919 64.9459Z" fill="#5986CB"/>
<path d="M48.3457 63.8796C50.5043 63.8071 52.6645 63.8704 54.8246 63.8441C55.9572 63.8488 57.0912 63.8472 58.2238 63.8426C58.7793 63.8796 59.2468 64.3086 59.3394 64.8579V65.1294C59.2684 65.6942 58.787 66.1354 58.2238 66.1725C57.0666 66.154 55.9109 66.1617 54.7537 66.1617C53.527 66.1663 52.3019 66.1524 51.0752 66.1725C50.3546 65.2112 49.4026 64.4413 48.3457 63.8796Z" fill="#0D3859"/>
<path d="M2.91161 63.8917C3.8019 63.4983 4.74312 63.2005 5.7121 63.0925C5.72599 63.1573 5.75376 63.2884 5.76765 63.3532C7.14243 63.739 8.42155 64.4595 9.39517 65.5149C11.2637 67.4467 11.9642 70.4015 11.2082 72.9752C10.7437 74.7311 9.55872 76.2278 8.08364 77.2554C7.22729 77.8294 6.24288 78.1704 5.27081 78.4928C3.49331 78.2259 1.80839 77.348 0.60796 76.004C-0.766826 74.495 -1.49048 72.4243 -1.36858 70.3861C-1.28063 68.8693 -0.735966 67.3866 0.179015 66.1738C0.902667 65.2187 1.85313 64.4518 2.91161 63.8917ZM5.41585 68.4034C4.64128 68.7737 3.98398 69.4588 3.83122 70.3274C3.572 71.4939 4.25862 72.7484 5.35259 73.2066L5.32173 73.2298C6.1611 73.5847 7.16866 73.472 7.89694 72.9196C8.74403 72.3148 9.1236 71.1807 8.86438 70.1793C8.53419 68.7228 6.79835 67.8186 5.41585 68.4034Z" fill="#26457D"/>
<path d="M41.4708 63.8776C42.3056 63.5011 43.1928 63.2404 44.0985 63.103C44.7234 63.6137 45.5535 63.7341 46.2185 64.1769C48.2753 65.3434 49.718 67.5329 49.9757 69.8828C50.2657 71.8625 49.6486 73.9177 48.4605 75.5085C47.3248 77.0576 45.5689 78.0482 43.7189 78.4803C41.9445 78.1979 40.2704 77.2999 39.0838 75.9452C37.7415 74.4423 37.0394 72.3979 37.1598 70.3874C37.2462 68.866 37.7939 67.3786 38.7135 66.1658C39.4434 65.2046 40.4015 64.4315 41.4708 63.8776ZM43.8671 68.4371C43.2468 68.7688 42.6944 69.2718 42.4629 69.9523C41.9723 71.2052 42.6635 72.7373 43.9149 73.2156L43.8871 73.2388C45.5088 73.9948 47.5887 72.5846 47.4637 70.7978C47.5409 69.0311 45.4625 67.6671 43.8671 68.4371Z" fill="#0D3859"/>
<path d="M32.9211 38.2246C34.1509 38.2416 35.3806 38.2354 36.6104 38.2308C37.4636 38.5671 38.2058 39.135 38.7505 39.874C43.1603 44.6758 47.5454 49.5053 51.9536 54.3116C46.0286 54.3054 40.1036 54.3178 34.1786 54.3054C33.4951 54.3594 32.8687 53.753 32.9242 53.0633C32.9165 48.1181 32.9242 43.1714 32.9211 38.2246Z" fill="white"/>
<path d="M36.6104 38.2307C37.6549 38.2246 38.7042 38.1582 39.7472 38.2508C40.5326 38.3094 41.1976 38.7939 41.713 39.3587C43.6185 41.4432 45.504 43.5447 47.4358 45.6046C47.9327 46.1647 48.4279 46.7279 48.9448 47.2695C51.1019 49.6148 53.242 51.9771 55.3991 54.3224C54.2743 54.3162 53.151 54.3332 52.0262 54.3131L51.9536 54.3116C47.5454 49.5052 43.1603 44.6757 38.7504 39.874C38.2058 39.1349 37.4636 38.5671 36.6104 38.2307Z" fill="#DFF0FD"/>
<path d="M52.0262 54.3131C53.151 54.3332 54.2743 54.3162 55.3991 54.3224C55.8743 54.8439 56.3403 55.3731 56.8264 55.8854C57.2769 56.3822 57.7861 56.8636 58.0144 57.5117C58.303 58.2477 58.2089 59.0485 58.2243 59.82C57.4651 59.84 56.7045 59.7937 55.9469 59.8462C55.4207 59.9064 55.0411 60.3801 54.964 60.8831C54.5366 59.6904 55.1106 58.3233 54.4394 57.1877C53.7836 56.1122 52.7514 55.3361 52.0262 54.3131Z" fill="#1B85AE"/>
<path d="M54.8251 63.8441C54.822 62.9414 54.6508 62.0033 54.9686 61.1331C55.0689 61.6206 55.4485 62.0666 55.9638 62.119C56.7153 62.1668 57.4713 62.1252 58.2243 62.1422C58.2212 62.7084 58.2212 63.2747 58.2243 63.8425C57.0917 63.8471 55.9577 63.8487 54.8251 63.8441Z" fill="#1B85AE"/>
<path d="M54.7541 66.1616C55.9114 66.1616 57.067 66.1539 58.2243 66.1724C58.2042 66.9685 58.2613 67.7678 58.1934 68.5624C58.0947 69.5422 57.2306 70.3785 56.24 70.4047C55.3019 70.4418 54.3622 70.4094 53.4225 70.4186C53.9364 69.9634 54.5998 69.5299 54.7156 68.7985C54.8467 67.9252 54.7665 67.0395 54.7541 66.1616Z" fill="#1B85AE"/>
<path d="M54.964 60.8831C55.0411 60.3801 55.4207 59.9064 55.9469 59.8462C56.7045 59.7938 57.4651 59.8401 58.2243 59.82C58.7828 59.8478 59.2488 60.286 59.3398 60.8337V61.1068C59.2642 61.6654 58.789 62.1129 58.2243 62.1422C57.4713 62.1252 56.7153 62.1669 55.9638 62.119C55.4485 62.0666 55.0689 61.6207 54.9686 61.1331C54.9671 61.0714 54.9655 60.9464 54.964 60.8831Z" fill="#0D3859"/>
<path d="M-10.0287 39.6535C-9.91144 38.8696 -9.20476 38.2123 -8.39933 38.2278C1.99411 38.2185 12.3875 38.2247 22.781 38.2247C23.3364 38.2231 23.8919 38.2231 24.4474 38.2262C24.469 46.765 24.4597 55.3038 24.4536 63.8426C20.4958 63.8549 16.5397 63.8441 12.5835 63.8472C11.6886 63.8534 10.7906 63.8117 9.89874 63.9105C8.59647 63.2887 7.15379 63.0001 5.71266 63.0927C4.74368 63.2007 3.80246 63.4985 2.91217 63.892C1.9725 63.8179 1.02975 63.8549 0.0885396 63.8472C-3.28748 63.8441 -6.66349 63.858 -10.038 63.841C-10.0364 62.9477 -10.038 62.0543 -10.038 61.1624C-7.9997 61.1578 -5.96298 61.1717 -3.92472 61.1578C-3.28593 61.201 -2.69498 60.6486 -2.71041 60.0068C-2.69343 59.3664 -3.27822 58.8125 -3.91701 58.8526C-5.95681 58.8387 -7.99662 58.8526 -10.038 58.848C-10.038 57.7201 -10.038 56.5906 -10.038 55.4627C-7.99816 55.4565 -5.95835 55.4735 -3.92009 55.4565C-3.33531 55.4874 -2.77521 55.0353 -2.71966 54.4459C-2.61628 53.7624 -3.22576 53.1004 -3.91701 53.1529C-5.95681 53.1375 -7.99816 53.1529 -10.038 53.1483C-10.0364 49.422 -10.038 45.6942 -10.0364 41.9679C-10.0302 41.1964 -10.0472 40.4249 -10.0287 39.6535ZM4.2561 44.1126C3.8719 44.4999 3.40747 44.844 3.14207 45.3285C4.94272 47.089 6.76805 48.8249 8.54401 50.6101C6.79891 52.4586 4.85786 54.1281 3.13128 55.9904C3.72378 56.5983 4.26999 57.3127 5.08776 57.626C6.25579 58.1182 7.69075 57.8265 8.58413 56.9301C10.1533 55.4103 11.7148 53.8827 13.2809 52.3614C14.2376 51.5652 14.3641 49.9805 13.48 49.0872C11.8274 47.4501 10.1533 45.8346 8.48229 44.2191C7.35438 43.1437 5.43647 43.0943 4.2561 44.1126ZM-6.33484 49.1242C-6.80236 49.2955 -7.13101 49.7846 -7.08318 50.2861C-7.05849 50.8678 -6.52771 51.3661 -5.94601 51.3523C-4.54808 51.3615 -3.14861 51.3677 -1.75222 51.3507C-1.23841 51.3507 -0.775522 50.948 -0.675229 50.4496C-0.499331 49.7831 -1.06251 49.0563 -1.75068 49.0563C-2.93568 49.0224 -4.12376 49.0579 -5.31031 49.0409C-5.6513 49.0501 -6.00619 49.0162 -6.33484 49.1242Z" fill="#289FCE"/>
<path d="M26.7832 38.2215C28.8292 38.2261 30.8751 38.2215 32.9211 38.2246C32.9242 43.1713 32.9165 48.1181 32.9242 53.0633C32.8686 53.753 33.4951 54.3594 34.1786 54.3054C40.1036 54.3177 46.0286 54.3054 51.9536 54.3116L52.0261 54.3131C52.7513 55.3361 53.7836 56.1122 54.4394 57.1877C55.1105 58.3233 54.5366 59.6904 54.964 60.8831C54.9655 60.9463 54.967 61.0713 54.9686 61.133C54.6507 62.0033 54.822 62.9414 54.8251 63.844C52.6649 63.8703 50.5048 63.807 48.3462 63.8795C47.0269 63.2438 45.5549 62.9954 44.0984 63.1034C43.1927 63.2407 42.3054 63.5015 41.4707 63.878C36.5764 63.8039 31.6806 63.8749 26.7863 63.8425C26.7616 55.3022 26.7693 46.7618 26.7832 38.2215Z" fill="#289FCE"/>
<path d="M12.5432 66.1662C16.5117 66.1647 20.4817 66.1508 24.4502 66.1724C24.4688 67.5765 24.4626 68.9821 24.4456 70.3862C20.9986 70.3909 17.5516 70.3878 14.1046 70.3878C13.9874 68.871 13.4705 67.379 12.5432 66.1662Z" fill="#289FCE"/>
<path d="M26.7845 66.1723C30.7607 66.1523 34.7369 66.1631 38.7131 66.1661C37.7935 67.3789 37.2458 68.8663 37.1594 70.3877C33.7 70.3908 30.2407 70.3862 26.7814 70.3892C26.7737 68.9836 26.7598 67.5764 26.7845 66.1723Z" fill="#289FCE"/>
<path d="M51.0761 66.1722C52.3028 66.1521 53.5279 66.166 54.7545 66.1614C54.7669 67.0393 54.8471 67.925 54.716 68.7983C54.6003 69.5297 53.9368 69.9633 53.423 70.4184C53.156 70.4123 52.8876 70.3968 52.6222 70.383C52.528 68.8678 51.9911 67.385 51.0761 66.1722Z" fill="#1D91BF"/>
</g>
<path d="M56.9354 15.0477C58.8831 14.8883 60.8822 15.1193 62.6922 15.8811C65.2924 16.932 67.4738 18.9621 68.7233 21.4718C69.8808 23.7667 70.2469 26.4479 69.7498 28.9697C69.4756 30.4191 68.9029 31.8022 68.1222 33.0517C68.1019 33.08 68.0614 33.1395 68.0411 33.1678C66.6472 35.2925 64.5454 36.9148 62.1668 37.7927C61.4833 37.6212 60.7715 37.6428 60.0799 37.5158C57.9849 37.1755 55.9885 36.2475 54.3852 34.8535C52.2091 33.0219 50.7665 30.3529 50.3883 27.5379C50.1304 25.3997 50.3843 23.1751 51.2906 21.2097C52.2848 18.954 54.0056 17.0306 56.1452 15.8068C56.5545 15.588 56.9772 15.3935 57.3784 15.1598C57.2677 15.1314 57.0461 15.076 56.9354 15.0477ZM62.7989 21.0895C60.6918 23.1291 58.6522 25.2417 56.5572 27.2948C56.4194 27.4556 56.1736 27.4204 56.052 27.2624C55.2253 26.4628 54.4365 25.6253 53.6044 24.8338C53.4572 24.673 53.2114 24.7365 53.0912 24.8932C52.278 25.709 51.4514 26.5127 50.6531 27.3421C50.4856 27.4826 50.5747 27.7298 50.7206 27.8459C52.0903 29.2223 53.4653 30.5933 54.839 31.9657C55.4104 32.5505 56.3356 32.7383 57.0921 32.4303C57.5608 32.2628 57.8917 31.8752 58.2361 31.5348C60.6877 29.0791 63.1434 26.6275 65.5963 24.1733C65.7827 24.0274 65.8759 23.7505 65.6584 23.5816C64.9088 22.805 64.1321 22.054 63.3743 21.2854C63.2298 21.1463 63.0029 20.9085 62.7989 21.0895Z" fill="#49CB5C"/>
<path d="M49.7618 18.6082C51.6367 16.6267 54.226 15.3502 56.9356 15.0477C57.0464 15.076 57.2679 15.1314 57.3786 15.1598C56.9775 15.3935 56.5547 15.588 56.1454 15.8068C54.0058 17.0306 52.285 18.954 51.2909 21.2097C50.3845 23.1751 50.1306 25.3997 50.3886 27.5379C50.7668 30.3529 52.2094 33.0219 54.3854 34.8535C55.9887 36.2475 57.9851 37.1755 60.0801 37.5158C60.7717 37.6428 61.4835 37.6212 62.167 37.7927C60.0274 38.5492 57.669 38.6775 55.4633 38.1304C52.6024 37.4456 50.0441 35.6248 48.4314 33.1692C48.4111 33.1408 48.3719 33.0841 48.353 33.0557C47.5628 31.809 46.9928 30.4204 46.72 28.967C45.9798 25.2917 47.136 21.2921 49.7618 18.6082Z" fill="#07B128"/>
<path d="M62.7991 21.0898C63.003 20.9088 63.23 21.1465 63.3745 21.2856C64.1323 22.0542 64.9089 22.8052 65.6586 23.5819C65.8761 23.7507 65.7829 24.0276 65.5964 24.1735C63.1435 26.6278 60.6879 29.0794 58.2363 31.535C57.8918 31.8754 57.5609 32.2631 57.0922 32.4306C56.3358 32.7385 55.4105 32.5508 54.8392 31.9659C53.4655 30.5936 52.0904 29.2226 50.7208 27.8462C50.5749 27.73 50.4857 27.4828 50.6532 27.3423C51.4515 26.513 52.2782 25.7093 53.0913 24.8935C53.2115 24.7368 53.4574 24.6733 53.6046 24.834C54.4367 25.6256 55.2255 26.463 56.0521 27.2626C56.1737 27.4207 56.4195 27.4558 56.5573 27.2951C58.6523 25.2419 60.6919 23.1294 62.7991 21.0898Z" fill="#F8F7F8"/>
</g>
<defs>
<clipPath id="clip0_445_9002">
<rect x="0.339844" width="76" height="76" rx="38" fill="white"/>
</clipPath>
<clipPath id="clip1_445_9002">
<rect width="79" height="79" fill="white" transform="translate(-19.6602 4)"/>
</clipPath>
</defs>
</svg>
